# xmcd
#
# Track frame offsets:
#	150
#	12722
#	24997
#	42110
#	56567
#	74820
#	91105
#	106717
#	123255
#	136335
#
# Disc length: 2002 seconds
#
# Revision: 12
# Processed by: cddbd v1.5.2PL0 Copyright (c) Steve Scherf et al.
# Submitted via: audiograbber 1.83.01
#
DISCID=8007d00a
DTITLE=Tanya Tucker - Greatest Hits (Capitol)
DYEAR=1989
DGENRE=Country
TTITLE0=Daddy And Home
TTITLE1=Strong Enough To Bend
TTITLE2=Love Me Like You Used To
TTITLE3=Just Another Love
TTITLE4=I'll Come Back As Another Woman
TTITLE5=My Arms Stay Open All Night
TTITLE6=If It Don't Come Easy
TTITLE7=I Won't Take Less Than Your Love (w Paul Overstreet and Paul Davis)
TTITLE8=One Love At A Time
TTITLE9=It's Only Over For You
EXTD=YEAR: 1989
EXTT0=
EXTT1=
EXTT2=
EXTT3=
EXTT4=
EXTT5=
EXTT6=
EXTT7=
EXTT8=
EXTT9=
PLAYORDER=
